<?xml version="1.0" encoding="UTF-8"?>
<svg width="700pt" height="700pt" fill="white" version="1.1" viewBox="0 0 700 700" xmlns="http://www.w3.org/2000/svg" xmlns:xlink="http://www.w3.org/1999/xlink">
 <defs>
  <symbol id="t" overflow="visible">
   <path d="m3.6562-0.21875c-0.1875 0.09375-0.38672 0.16797-0.59375 0.21875-0.19922 0.050781-0.40625 0.078125-0.625 0.078125-0.66797 0-1.1992-0.17969-1.5938-0.54688-0.38672-0.375-0.57812-0.87891-0.57812-1.5156 0-0.64453 0.19141-1.1484 0.57812-1.5156 0.39453-0.375 0.92578-0.5625 1.5938-0.5625 0.21875 0 0.42578 0.027344 0.625 0.078125 0.20703 0.054687 0.40625 0.125 0.59375 0.21875v0.82812c-0.1875-0.125-0.375-0.21875-0.5625-0.28125-0.17969-0.0625-0.37109-0.09375-0.57812-0.09375-0.36719 0-0.65625 0.12109-0.875 0.35938-0.21094 0.23047-0.3125 0.55469-0.3125 0.96875 0 0.40625 0.10156 0.73047 0.3125 0.96875 0.21875 0.23047 0.50781 0.34375 0.875 0.34375 0.20703 0 0.39844-0.023437 0.57812-0.078125 0.1875-0.0625 0.375-0.16016 0.5625-0.29688z"/>
  </symbol>
  <symbol id="b" overflow="visible">
   <path d="m2.6875-2.1719c-0.085938-0.039063-0.16797-0.070313-0.25-0.09375-0.085938-0.019531-0.16797-0.03125-0.25-0.03125-0.25 0-0.44531 0.085937-0.57812 0.25-0.125 0.15625-0.1875 0.38281-0.1875 0.67188v1.375h-0.96875v-2.9844h0.96875v0.48438c0.11328-0.19531 0.25-0.33594 0.40625-0.42188 0.16406-0.09375 0.35938-0.14062 0.57812-0.14062h0.10938c0.039063 0 0.09375 0.007812 0.15625 0.015625z"/>
  </symbol>
  <symbol id="a" overflow="visible">
   <path d="m3.4375-1.5v0.26562h-2.2344c0.03125 0.23047 0.11328 0.40234 0.25 0.51562 0.13281 0.10547 0.32812 0.15625 0.57812 0.15625 0.20703 0 0.41406-0.023438 0.625-0.078125 0.20703-0.0625 0.42188-0.15625 0.64062-0.28125v0.73438c-0.21875 0.09375-0.44531 0.16406-0.67188 0.20312-0.23047 0.039062-0.45312 0.0625-0.67188 0.0625-0.54297 0-0.96484-0.13281-1.2656-0.40625-0.30469-0.28125-0.45312-0.67188-0.45312-1.1719 0-0.47656 0.14453-0.85938 0.4375-1.1406 0.30078-0.28125 0.70703-0.42188 1.2188-0.42188 0.46875 0 0.84375 0.14062 1.125 0.42188s0.42188 0.66406 0.42188 1.1406zm-0.96875-0.32812c0-0.17578-0.058594-0.31641-0.17188-0.42188-0.10547-0.11328-0.24219-0.17188-0.40625-0.17188-0.1875 0-0.33984 0.054687-0.45312 0.15625-0.11719 0.10547-0.1875 0.25-0.21875 0.4375z"/>
  </symbol>
  <symbol id="f" overflow="visible">
   <path d="m1.7969-1.3438c-0.19922 0-0.35156 0.039062-0.45312 0.10938-0.09375 0.0625-0.14062 0.16406-0.14062 0.29688 0 0.11719 0.035156 0.21094 0.10938 0.28125 0.082031 0.0625 0.19531 0.09375 0.34375 0.09375 0.17578 0 0.32812-0.0625 0.45312-0.1875s0.1875-0.28516 0.1875-0.48438v-0.10938zm1.4688-0.35938v1.7031h-0.96875v-0.4375c-0.125 0.17969-0.27344 0.30859-0.4375 0.39062-0.15625 0.082031-0.35156 0.125-0.57812 0.125-0.3125 0-0.57031-0.085938-0.76562-0.26562-0.1875-0.1875-0.28125-0.42188-0.28125-0.70312 0-0.35156 0.11719-0.61328 0.35938-0.78125 0.23828-0.16406 0.61719-0.25 1.1406-0.25h0.5625v-0.0625c0-0.15625-0.0625-0.26562-0.1875-0.32812-0.11719-0.070312-0.29688-0.10938-0.54688-0.10938-0.21094 0-0.40234 0.023437-0.57812 0.0625-0.17969 0.042969-0.33984 0.10156-0.48438 0.17188v-0.71875c0.19531-0.050781 0.39844-0.085938 0.60938-0.10938 0.20703-0.03125 0.41406-0.046875 0.625-0.046875 0.53906 0 0.92969 0.10938 1.1719 0.32812 0.23828 0.21094 0.35938 0.55469 0.35938 1.0312z"/>
  </symbol>
  <symbol id="d" overflow="visible">
   <path d="m1.5-3.8438v0.85938h0.98438v0.67188h-0.98438v1.2812c0 0.13672 0.023438 0.23047 0.078125 0.28125 0.0625 0.042969 0.17578 0.0625 0.34375 0.0625h0.48438v0.6875h-0.8125c-0.38672 0-0.65625-0.078125-0.8125-0.23438s-0.23438-0.42188-0.23438-0.79688v-1.2812h-0.46875v-0.67188h0.46875v-0.85938z"/>
  </symbol>
  <symbol id="k" overflow="visible">
   <path d="m2.5-2.5469v-1.6094h0.95312v4.1562h-0.95312v-0.4375c-0.13672 0.17969-0.28125 0.30859-0.4375 0.39062-0.15625 0.082031-0.33984 0.125-0.54688 0.125-0.375 0-0.68359-0.14453-0.92188-0.4375-0.23047-0.28906-0.34375-0.67188-0.34375-1.1406 0-0.45703 0.11328-0.83203 0.34375-1.125 0.23828-0.28906 0.54688-0.4375 0.92188-0.4375 0.19531 0 0.375 0.042969 0.53125 0.125 0.16406 0.085938 0.31641 0.21484 0.45312 0.39062zm-0.64062 1.9375c0.20703 0 0.36328-0.070313 0.46875-0.21875 0.11328-0.15625 0.17188-0.37891 0.17188-0.67188 0-0.28125-0.058594-0.49219-0.17188-0.64062-0.10547-0.15625-0.26172-0.23438-0.46875-0.23438-0.19922 0-0.35547 0.078125-0.46875 0.23438-0.10547 0.14844-0.15625 0.35938-0.15625 0.64062 0 0.29297 0.050781 0.51562 0.15625 0.67188 0.11328 0.14844 0.26953 0.21875 0.46875 0.21875z"/>
  </symbol>
  <symbol id="j" overflow="visible">
   <path d="m2.0469-0.60938c0.20703 0 0.36328-0.070313 0.46875-0.21875 0.11328-0.15625 0.17188-0.37891 0.17188-0.67188 0-0.28125-0.058594-0.49219-0.17188-0.64062-0.10547-0.15625-0.26172-0.23438-0.46875-0.23438-0.19922 0-0.35547 0.078125-0.46875 0.23438-0.10547 0.14844-0.15625 0.35938-0.15625 0.64062 0 0.29297 0.050781 0.51562 0.15625 0.67188 0.11328 0.14844 0.26953 0.21875 0.46875 0.21875zm-0.625-1.9375c0.125-0.17578 0.26562-0.30469 0.42188-0.39062 0.16406-0.082031 0.35156-0.125 0.5625-0.125 0.36328 0 0.66406 0.14844 0.90625 0.4375 0.23828 0.29297 0.35938 0.66797 0.35938 1.125 0 0.46875-0.12109 0.85156-0.35938 1.1406-0.24219 0.29297-0.54297 0.4375-0.90625 0.4375-0.21094 0-0.39844-0.042969-0.5625-0.125-0.15625-0.082031-0.29688-0.21094-0.42188-0.39062v0.4375h-0.96875v-4.1562h0.96875z"/>
  </symbol>
  <symbol id="i" overflow="visible">
   <path d="m0.0625-2.9844h0.95312l0.8125 2.0156 0.6875-2.0156h0.95312l-1.2656 3.2656c-0.125 0.33203-0.27344 0.56641-0.4375 0.70312-0.16797 0.13281-0.39062 0.20312-0.67188 0.20312h-0.54688v-0.64062h0.29688c0.16406 0 0.28516-0.027344 0.35938-0.078125 0.070313-0.054688 0.12891-0.14062 0.17188-0.26562l0.03125-0.09375z"/>
  </symbol>
  <symbol id="e" overflow="visible">
   <path d="m0.45312-2.9844h0.96875v2.9844h-0.96875zm0-1.1719h0.96875v0.78125h-0.96875z"/>
  </symbol>
  <symbol id="h" overflow="visible">
   <path d="m2.875-2.8906v0.76562c-0.125-0.082031-0.25781-0.14453-0.39062-0.1875-0.13672-0.039062-0.27344-0.0625-0.40625-0.0625-0.27344 0-0.48047 0.078125-0.625 0.23438-0.14844 0.15625-0.21875 0.37109-0.21875 0.64062 0 0.28125 0.070313 0.5 0.21875 0.65625 0.14453 0.15625 0.35156 0.23438 0.625 0.23438 0.14453 0 0.28516-0.019531 0.42188-0.0625 0.13281-0.039063 0.25781-0.10938 0.375-0.20312v0.78125c-0.14844 0.0625-0.29688 0.10156-0.45312 0.125-0.15625 0.03125-0.3125 0.046875-0.46875 0.046875-0.54297 0-0.96484-0.13281-1.2656-0.40625-0.30469-0.28125-0.45312-0.67188-0.45312-1.1719 0-0.48828 0.14844-0.86719 0.45312-1.1406 0.30078-0.28125 0.72266-0.42188 1.2656-0.42188 0.15625 0 0.3125 0.015625 0.46875 0.046875 0.15625 0.023437 0.30469 0.0625 0.45312 0.125z"/>
  </symbol>
  <symbol id="c" overflow="visible">
   <path d="m1.875-2.375c-0.21094 0-0.37109 0.078125-0.48438 0.23438-0.10547 0.14844-0.15625 0.35938-0.15625 0.64062 0 0.29297 0.050781 0.51562 0.15625 0.67188 0.11328 0.14844 0.27344 0.21875 0.48438 0.21875 0.20703 0 0.36719-0.070313 0.48438-0.21875 0.11328-0.15625 0.17188-0.37891 0.17188-0.67188 0-0.28125-0.058594-0.49219-0.17188-0.64062-0.11719-0.15625-0.27734-0.23438-0.48438-0.23438zm0-0.6875c0.51953 0 0.92188 0.14062 1.2031 0.42188 0.28906 0.27344 0.4375 0.65234 0.4375 1.1406 0 0.5-0.14844 0.89062-0.4375 1.1719-0.28125 0.27344-0.68359 0.40625-1.2031 0.40625-0.51172 0-0.91406-0.13281-1.2031-0.40625-0.29297-0.28125-0.4375-0.67188-0.4375-1.1719 0-0.48828 0.14453-0.86719 0.4375-1.1406 0.28906-0.28125 0.69141-0.42188 1.2031-0.42188z"/>
  </symbol>
  <symbol id="g" overflow="visible">
   <path d="m3.4688-1.8281v1.8281h-0.96875v-1.3906c0-0.25781-0.007812-0.4375-0.015625-0.53125-0.011719-0.10156-0.03125-0.17578-0.0625-0.21875-0.03125-0.0625-0.085937-0.10938-0.15625-0.14062-0.0625-0.039062-0.13281-0.0625-0.20312-0.0625-0.21094 0-0.37109 0.078125-0.48438 0.23438-0.10547 0.15625-0.15625 0.37109-0.15625 0.64062v1.4688h-0.96875v-2.9844h0.96875v0.4375c0.13281-0.17578 0.28516-0.30469 0.45312-0.39062 0.16406-0.082031 0.34375-0.125 0.53125-0.125 0.34375 0 0.60156 0.10938 0.78125 0.32812 0.1875 0.21094 0.28125 0.51172 0.28125 0.90625z"/>
  </symbol>
  <symbol id="s" overflow="visible">
   <path d="m1.2188-1.5312-1.0781-1.4531h1l0.625 0.875 0.60938-0.875h1.0156l-1.0781 1.4531 1.125 1.5312h-1l-0.67188-0.9375-0.67188 0.9375h-1.0156z"/>
  </symbol>
  <symbol id="r" overflow="visible">
   <path d="m2.4219-4.1562v0.625h-0.51562c-0.13672 0-0.23438 0.027344-0.29688 0.078125-0.054687 0.054687-0.078125 0.13672-0.078125 0.25v0.21875h0.82812v0.67188h-0.82812v2.3125h-0.95312v-2.3125h-0.46875v-0.67188h0.46875v-0.21875c0-0.32031 0.085937-0.5625 0.26562-0.71875 0.1875-0.15625 0.47266-0.23438 0.85938-0.23438z"/>
  </symbol>
  <symbol id="q" overflow="visible">
   <path d="m3.2344-2.5c0.11328-0.17578 0.25391-0.3125 0.42188-0.40625 0.16406-0.10156 0.35156-0.15625 0.5625-0.15625 0.33203 0 0.58594 0.10938 0.76562 0.32812 0.1875 0.21094 0.28125 0.51172 0.28125 0.90625v1.8281h-0.96875v-1.5625c0.007813-0.019531 0.015625-0.039062 0.015625-0.0625v-0.10938c0-0.21875-0.03125-0.375-0.09375-0.46875s-0.16406-0.14062-0.29688-0.14062c-0.1875 0-0.33594 0.078125-0.4375 0.23438-0.09375 0.14844-0.14062 0.35938-0.14062 0.64062v1.4688h-0.96875v-1.5625c0-0.33203-0.03125-0.54688-0.09375-0.64062-0.054688-0.09375-0.15234-0.14062-0.29688-0.14062-0.17969 0-0.32031 0.078125-0.42188 0.23438-0.09375 0.14844-0.14062 0.35938-0.14062 0.64062v1.4688h-0.96875v-2.9844h0.96875v0.4375c0.11328-0.17578 0.24219-0.30469 0.39062-0.39062 0.15625-0.082031 0.32812-0.125 0.51562-0.125 0.20703 0 0.39062 0.054688 0.54688 0.15625 0.15625 0.09375 0.27344 0.23047 0.35938 0.40625z"/>
  </symbol>
  <symbol id="p" overflow="visible">
   <path d="m3.4688-1.8281v1.8281h-0.96875v-1.3906c0-0.25781-0.007812-0.4375-0.015625-0.53125-0.011719-0.10156-0.03125-0.17578-0.0625-0.21875-0.03125-0.0625-0.085937-0.10938-0.15625-0.14062-0.0625-0.039062-0.13281-0.0625-0.20312-0.0625-0.21094 0-0.37109 0.078125-0.48438 0.23438-0.10547 0.15625-0.15625 0.37109-0.15625 0.64062v1.4688h-0.96875v-4.1562h0.96875v1.6094c0.13281-0.17578 0.28516-0.30469 0.45312-0.39062 0.16406-0.082031 0.34375-0.125 0.53125-0.125 0.34375 0 0.60156 0.10938 0.78125 0.32812 0.1875 0.21094 0.28125 0.51172 0.28125 0.90625z"/>
  </symbol>
  <symbol id="o" overflow="visible">
   <path d="m0.5-3.9844h1.1562l1.4375 2.7344v-2.7344h0.98438v3.9844h-1.1562l-1.4375-2.7344v2.7344h-0.98438z"/>
  </symbol>
  <symbol id="n" overflow="visible">
   <path d="m0.42188-1.1719v-1.8125h0.96875v0.29688 0.60938 0.48438c0 0.24219 0.003906 0.41797 0.015625 0.53125 0.007812 0.10547 0.03125 0.17969 0.0625 0.21875 0.039062 0.0625 0.09375 0.11719 0.15625 0.15625 0.0625 0.03125 0.13281 0.046875 0.21875 0.046875 0.19531 0 0.35156-0.078125 0.46875-0.23438 0.11328-0.15625 0.17188-0.36719 0.17188-0.64062v-1.4688h0.95312v2.9844h-0.95312v-0.4375c-0.14844 0.17969-0.30469 0.30859-0.46875 0.39062-0.15625 0.082031-0.33594 0.125-0.53125 0.125-0.34375 0-0.60938-0.10156-0.79688-0.3125-0.17969-0.21875-0.26562-0.53125-0.26562-0.9375z"/>
  </symbol>
  <symbol id="m" overflow="visible">
   <path d="m0.5-3.9844h1.7031c0.50781 0 0.89844 0.11719 1.1719 0.34375 0.26953 0.21875 0.40625 0.53906 0.40625 0.95312 0 0.41797-0.13672 0.74219-0.40625 0.96875-0.27344 0.21875-0.66406 0.32812-1.1719 0.32812h-0.67188v1.3906h-1.0312zm1.0312 0.75v1.1094h0.5625c0.19531 0 0.34766-0.046875 0.45312-0.14062 0.11328-0.10156 0.17188-0.24219 0.17188-0.42188 0-0.17578-0.058594-0.3125-0.17188-0.40625-0.10547-0.09375-0.25781-0.14062-0.45312-0.14062z"/>
  </symbol>
  <symbol id="l" overflow="visible">
   <path d="m0.45312-2.9844h0.96875v2.9375c0 0.39453-0.10156 0.69531-0.29688 0.90625-0.1875 0.21875-0.46484 0.32812-0.82812 0.32812h-0.48438v-0.64062h0.17188c0.17578 0 0.29688-0.042969 0.35938-0.125 0.070312-0.074219 0.10938-0.23047 0.10938-0.46875zm0-1.1719h0.96875v0.78125h-0.96875z"/>
  </symbol>
 </defs>
 <g>
  <path d="m124.86 234.95c-0.078125 1.5234-0.023437 3.0469 0.16406 4.5625l6.293 50.328h-0.003906c0.54688 4.3789 4.2695 7.6641 8.6836 7.6641h7.1719s-3.8281 23.133-3.8867 23.734l-28.234 45.172c-3.5312 5.668-4.7734 12.469-3.4727 19.02 1.2969 6.5508 5.043 12.363 10.473 16.254l38.031 27.168v-0.003906c4.3438 3.0781 9.5117 4.7734 14.836 4.8594 5.3203 0.085937 10.543-1.4414 14.98-4.375l4.2656-2.8438c3.4766-2.3047 8.0898-1.8477 11.043 1.0938l10.98 10.98v-0.003906c4.9102 4.9414 11.594 7.707 18.562 7.6914h76.125c4.0742-0.007813 8.0898-0.95312 11.738-2.7734l23.477-11.738c2.4648-1.2266 5.3633-1.2266 7.8281 0l23.477 11.738c3.6445 1.8203 7.6641 2.7695 11.738 2.7773h76.125c6.9648 0.019531 13.648-2.75 18.559-7.6875l10.977-10.98h0.003906c2.9531-2.9453 7.5703-3.4023 11.047-1.0938l4.2656 2.8438c4.4375 2.9375 9.6602 4.4609 14.984 4.375 5.3203-0.085937 10.492-1.7773 14.832-4.8555l38.031-27.168c5.4297-3.8906 9.1758-9.6992 10.477-16.25 1.2969-6.5508 0.054687-13.352-3.4766-19.023l-28.238-45.176c-0.058594-0.60156-3.8867-23.734-3.8867-23.734h7.168c4.4141 0 8.1367-3.2852 8.6836-7.6641l6.293-50.328h-0.003906c0.17969-1.4258 0.23828-2.8633 0.17969-4.2969l36.723-91.965c0.60156-1.5078 0.77344-3.1523 0.49609-4.7539-1.6016-9.1523-19.535-14.516-27.469-15.555-13.023-1.707-36.285 0.32031-53.949 29.871l-25.898-20.719v-0.003906c-7.7656-6.1914-17.398-9.5742-27.332-9.5859h-75.902c-13.297-0.03125-25.879 6.0156-34.16 16.418l-10.828 13.531v0.003906c-1.6602 2.0742-4.1758 3.2852-6.832 3.2852-2.6602 0-5.1719-1.2109-6.832-3.2852l-10.828-13.531v-0.003906c-8.2852-10.402-20.863-16.449-34.16-16.418h-75.906c-9.9336 0.011719-19.566 3.3906-27.332 9.5859l-25.891 20.719c-17.664-29.547-40.922-31.574-53.949-29.867-7.9336 1.043-25.867 6.4062-27.469 15.555-0.28125 1.6055-0.10937 3.2539 0.49609 4.7617zm19.648-4.4844h0.003906c1.6523-1.8945 4.0469-2.9766 6.5625-2.9609h6.4219c4.832 0.007812 8.7461 3.9219 8.75 8.75v43.75h-18.527l-5.332-42.664c-0.32422-2.4922 0.44922-5 2.125-6.875zm39.238 14.539c0-6.2539 3.3359-12.031 8.75-15.156s12.086-3.125 17.5 0 8.75 8.9023 8.75 15.156v35h-35zm52.5 0c0-6.2539 3.3359-12.031 8.75-15.156s12.086-3.125 17.5 0 8.75 8.9023 8.75 15.156v35h-35zm52.5 8.75c0-9.3789 5.0039-18.043 13.125-22.734 8.1211-4.6875 18.129-4.6875 26.25 0 8.1211 4.6914 13.125 13.355 13.125 22.734v26.25h-52.5zm70 0c0-9.3789 5.0039-18.043 13.125-22.734 8.1211-4.6875 18.129-4.6875 26.25 0 8.1211 4.6914 13.125 13.355 13.125 22.734v26.25h-52.5zm70-8.75c0-6.2539 3.3359-12.031 8.75-15.156s12.086-3.125 17.5 0 8.75 8.9023 8.75 15.156v35h-35zm52.5 0c0-6.2539 3.3359-12.031 8.75-15.156s12.086-3.125 17.5 0 8.75 8.9023 8.75 15.156v35h-35zm-246.58 52.5-4.6133 27.688h-0.003906c-0.69141 4.2266-4.3477 7.3242-8.6289 7.3125h-5.3516c-4.2812 0.011719-7.9375-3.0859-8.6289-7.3125l-4.6172-27.688zm52.5 0-4.6133 27.688h-0.003906c-0.69141 4.2266-4.3477 7.3242-8.6289 7.3125h-5.3516c-4.2812 0.011719-7.9375-3.0859-8.6289-7.3125l-4.6172-27.688zm157.5 0-4.6133 27.688h-0.003906c-0.69141 4.2266-4.3477 7.3242-8.6289 7.3125h-5.3516c-4.2812 0.011719-7.9375-3.0859-8.6289-7.3125l-4.6172-27.688zm52.5 0-4.6133 27.688h-0.003906c-0.69141 4.2266-4.3477 7.3242-8.6289 7.3125h-5.3516c-4.2812 0.011719-7.9375-3.0859-8.6289-7.3125l-4.6172-27.688zm-105 0-4.6133 27.688h-0.003906c-0.69141 4.2266-4.3477 7.3242-8.6289 7.3125h-5.3516c-4.2812 0.011719-7.9375-3.0859-8.6289-7.3125l-4.6172-27.688zm-52.5 0-4.6133 27.688h-0.003906c-0.69141 4.2266-4.3477 7.3242-8.6289 7.3125h-5.3516c-4.2812 0.011719-7.9375-3.0859-8.6289-7.3125l-4.6172-27.688zm-155.92 0v26.25c-0.003906 4.832-3.918 8.7461-8.75 8.75h-5.5938c-2.5703 0-5.0117-1.1328-6.6719-3.0977-1.6602-1.9609-2.375-4.5547-1.9531-7.0898l4.1328-24.812zm384.02 89.945-38.031 27.164c-2.9609 2.1016-6.9102 2.1641-9.9375 0.16016l-4.2656-2.8438c-5.0547-3.3555-11.113-4.8594-17.148-4.2617-6.0352 0.59766-11.68 3.2617-15.977 7.543l-10.98 10.98c-1.6367 1.6445-3.8594 2.5664-6.1836 2.5625h-76.125c-1.3555 0-2.6953-0.31641-3.9102-0.92188l-23.48-11.742c-7.3945-3.6758-16.082-3.6758-23.477 0l-23.477 11.742c-1.2148 0.60547-2.5547 0.92188-3.9141 0.92188h-76.125c-2.3203 0.007812-4.5508-0.91797-6.1875-2.5625l-10.98-10.98h0.003906c-4.3008-4.2773-9.9453-6.9414-15.98-7.5391-6.0352-0.59766-12.09 0.90625-17.145 4.2578l-4.2656 2.8438c-3.0273 2.0039-6.9766 1.9414-9.9375-0.16016l-38.027-27.164c-3.7539-2.6914-4.7734-7.8398-2.332-11.758l20.902-33.441-0.003907-0.003906c4.9219 4.9688 11.625 7.7617 18.617 7.7578h5.5938c7.9961 0 15.555-3.6523 20.523-9.9141 4.9727 6.2773 12.543 9.9297 20.551 9.9141h5.3516c4.9141 0.011719 9.7344-1.3633 13.902-3.9648 4.1719-2.6016 7.5234-6.3281 9.6719-10.75 2.1484 4.4219 5.5 8.1484 9.6719 10.75 4.168 2.6016 8.9883 3.9766 13.902 3.9648h5.3516c4.9141 0.011719 9.7344-1.3633 13.902-3.9648 4.1719-2.6016 7.5234-6.3281 9.6719-10.75 2.1484 4.4219 5.5 8.1484 9.6719 10.75 4.168 2.6016 8.9883 3.9766 13.902 3.9648h5.3516c4.9141 0.011719 9.7344-1.3633 13.902-3.9648 4.1719-2.6016 7.5234-6.3281 9.6719-10.75 2.1484 4.4219 5.5 8.1484 9.6719 10.75 4.168 2.6016 8.9883 3.9766 13.902 3.9648h5.3516c4.9141 0.011719 9.7344-1.3633 13.902-3.9648 4.1719-2.6016 7.5234-6.3281 9.6719-10.75 2.1484 4.4219 5.5 8.1484 9.6719 10.75 4.168 2.6016 8.9883 3.9766 13.902 3.9648h5.3516c4.9141 0.011719 9.7344-1.3633 13.902-3.9648 4.1719-2.6016 7.5234-6.3281 9.6719-10.75 2.1484 4.4219 5.5 8.1484 9.6719 10.75 4.168 2.6016 8.9883 3.9766 13.902 3.9648h5.3516c8.0039 0.015625 15.578-3.6367 20.551-9.9141 4.9688 6.2617 12.527 9.9141 20.523 9.9141h5.5898c6.9922 0.003906 13.695-2.7891 18.617-7.7539l20.902 33.441v-0.003906c2.4453 3.9219 1.4219 9.0703-2.3359 11.762zm-28.555-65.133c0.42188 2.5352-0.29297 5.1289-1.9531 7.0938-1.6641 1.9609-4.1016 3.0938-6.6758 3.0938h-5.5898c-4.832-0.003906-8.7461-3.918-8.75-8.75v-26.25h18.836zm18.387-84.977-5.332 42.664h-18.523v-43.75c0.003906-4.832 3.918-8.7461 8.75-8.75h6.4258c2.5078 0 4.8984 1.0781 6.5586 2.9609 1.6602 1.8789 2.4336 4.3828 2.125 6.875zm-429.23-96.656c12.059 2.582 22.133 12.426 29.934 29.254v-0.003906c1.1289 2.4414 3.3203 4.2266 5.9375 4.8398 2.6172 0.61719 5.3711-0.007812 7.4688-1.6875l34.164-27.332v0.003906c4.6562-3.7188 10.438-5.7461 16.395-5.7539h75.906c7.9805-0.019531 15.527 3.6094 20.496 9.8516l10.828 13.531c4.9844 6.2305 12.527 9.8555 20.5 9.8555 7.9727 0 15.516-3.625 20.496-9.8555l10.828-13.531c4.9688-6.2383 12.516-9.8672 20.488-9.8516h75.902c5.9609 0.007812 11.738 2.0352 16.398 5.7539l34.16 27.328c2.0977 1.6797 4.8516 2.3008 7.4688 1.6875 2.6172-0.61719 4.8047-2.3984 5.9375-4.8398 7.8047-16.828 17.875-26.672 29.934-29.254v0.003907c7.2266-1.4219 14.723-0.52734 21.41 2.5586l-28.664 71.793c-4.4844-3.2656-9.8906-5.0273-15.441-5.0312h-6.4258c-7.7188 0-15.043 3.3984-20.023 9.2969-6.9141-6.4023-16.121-9.7383-25.535-9.2539-9.4102 0.48828-18.227 4.7617-24.441 11.844-7.0547-8.0352-17.402-12.398-28.082-11.84-10.68 0.5625-20.516 5.9805-26.691 14.711-8.707-9.8516-21.387-15.258-34.523-14.723-13.137 0.53906-25.332 6.9648-33.203 17.496-7.8711-10.531-20.066-16.957-33.203-17.496-13.137-0.53516-25.816 4.8711-34.523 14.723-6.1758-8.7305-16.012-14.148-26.691-14.711-10.68-0.55859-21.027 3.8047-28.082 11.84-6.2148-7.082-15.031-11.355-24.441-11.84-9.4141-0.48828-18.621 2.8477-25.535 9.25-4.9805-5.8984-12.305-9.2969-20.023-9.2969h-6.4258c-5.5156 0.003906-10.891 1.7422-15.359 4.9688l-28.746-71.734c6.6914-3.082 14.18-3.9766 21.41-2.5547z"/>
  
 </g>
</svg>
