<?xml version="1.0" encoding="UTF-8"?>
<svg width="700pt" height="700pt" fill="white" version="1.1" viewBox="0 0 700 700" xmlns="http://www.w3.org/2000/svg" xmlns:xlink="http://www.w3.org/1999/xlink">
 <defs>
  <symbol id="i" overflow="visible">
   <path d="m18.766-1.125c-0.96875 0.5-1.9805 0.875-3.0312 1.125-1.043 0.25781-2.1367 0.39062-3.2812 0.39062-3.3984 0-6.0898-0.94531-8.0781-2.8438-1.9922-1.9062-2.9844-4.4844-2.9844-7.7344 0-3.2578 0.99219-5.8359 2.9844-7.7344 1.9883-1.9062 4.6797-2.8594 8.0781-2.8594 1.1445 0 2.2383 0.13281 3.2812 0.39062 1.0508 0.25 2.0625 0.625 3.0312 1.125v4.2188c-0.98047-0.65625-1.9453-1.1406-2.8906-1.4531-0.94922-0.3125-1.9492-0.46875-3-0.46875-1.875 0-3.3516 0.60547-4.4219 1.8125-1.0742 1.1992-1.6094 2.8555-1.6094 4.9688 0 2.1055 0.53516 3.7617 1.6094 4.9688 1.0703 1.1992 2.5469 1.7969 4.4219 1.7969 1.0508 0 2.0508-0.14844 3-0.45312 0.94531-0.3125 1.9102-0.80078 2.8906-1.4688z"/>
  </symbol>
  <symbol id="d" overflow="visible">
   <path d="m13.734-11.141c-0.4375-0.19531-0.87109-0.34375-1.2969-0.4375-0.41797-0.10156-0.83984-0.15625-1.2656-0.15625-1.2617 0-2.2305 0.40625-2.9062 1.2188-0.67969 0.80469-1.0156 1.9531-1.0156 3.4531v7.0625h-4.8906v-15.312h4.8906v2.5156c0.625-1 1.3438-1.7266 2.1562-2.1875 0.82031-0.46875 1.8008-0.70312 2.9375-0.70312 0.16406 0 0.34375 0.011719 0.53125 0.03125 0.19531 0.011719 0.47656 0.039062 0.84375 0.078125z"/>
  </symbol>
  <symbol id="a" overflow="visible">
   <path d="m17.641-7.7031v1.4062h-11.453c0.125 1.1484 0.53906 2.0078 1.25 2.5781 0.70703 0.57422 1.7031 0.85938 2.9844 0.85938 1.0312 0 2.082-0.14844 3.1562-0.45312 1.082-0.3125 2.1914-0.77344 3.3281-1.3906v3.7656c-1.1562 0.4375-2.3125 0.76562-3.4688 0.98438-1.1562 0.22656-2.3125 0.34375-3.4688 0.34375-2.7734 0-4.9297-0.70312-6.4688-2.1094-1.5312-1.4062-2.2969-3.3789-2.2969-5.9219 0-2.5 0.75391-4.4609 2.2656-5.8906 1.5078-1.4375 3.582-2.1562 6.2188-2.1562 2.4062 0 4.332 0.73047 5.7812 2.1875 1.4453 1.4492 2.1719 3.3828 2.1719 5.7969zm-5.0312-1.625c0-0.92578-0.27344-1.6719-0.8125-2.2344-0.54297-0.57031-1.25-0.85938-2.125-0.85938-0.94922 0-1.7188 0.26562-2.3125 0.79688s-0.96484 1.2969-1.1094 2.2969z"/>
  </symbol>
  <symbol id="m" overflow="visible">
   <path d="m9.2188-6.8906c-1.0234 0-1.793 0.17188-2.3125 0.51562-0.51172 0.34375-0.76562 0.85547-0.76562 1.5312 0 0.625 0.20703 1.1172 0.625 1.4688 0.41406 0.34375 0.98828 0.51562 1.7188 0.51562 0.92578 0 1.7031-0.32812 2.3281-0.98438 0.63281-0.66406 0.95312-1.4922 0.95312-2.4844v-0.5625zm7.4688-1.8438v8.7344h-4.9219v-2.2656c-0.65625 0.92969-1.3984 1.6055-2.2188 2.0312-0.82422 0.41406-1.8242 0.625-3 0.625-1.5859 0-2.8711-0.45703-3.8594-1.375-0.99219-0.92578-1.4844-2.1289-1.4844-3.6094 0-1.7891 0.61328-3.1016 1.8438-3.9375 1.2383-0.84375 3.1797-1.2656 5.8281-1.2656h2.8906v-0.39062c0-0.76953-0.30859-1.332-0.92188-1.6875-0.61719-0.36328-1.5703-0.54688-2.8594-0.54688-1.0547 0-2.0312 0.10547-2.9375 0.3125-0.89844 0.21094-1.7305 0.52344-2.5 0.9375v-3.7344c1.0391-0.25 2.0859-0.44141 3.1406-0.57812 1.0625-0.13281 2.125-0.20312 3.1875-0.20312 2.7578 0 4.75 0.54688 5.9688 1.6406 1.2266 1.0859 1.8438 2.8555 1.8438 5.3125z"/>
  </symbol>
  <symbol id="c" overflow="visible">
   <path d="m7.7031-19.656v4.3438h5.0469v3.5h-5.0469v6.5c0 0.71094 0.14062 1.1875 0.42188 1.4375s0.83594 0.375 1.6719 0.375h2.5156v3.5h-4.1875c-1.9375 0-3.3125-0.39844-4.125-1.2031-0.80469-0.8125-1.2031-2.1797-1.2031-4.1094v-6.5h-2.4219v-3.5h2.4219v-4.3438z"/>
  </symbol>
  <symbol id="l" overflow="visible">
   <path d="m12.766-13.078v-8.2031h4.9219v21.281h-4.9219v-2.2188c-0.66797 0.90625-1.4062 1.5703-2.2188 1.9844s-1.7578 0.625-2.8281 0.625c-1.8867 0-3.4336-0.75-4.6406-2.25-1.2109-1.5-1.8125-3.4258-1.8125-5.7812 0-2.3633 0.60156-4.2969 1.8125-5.7969 1.207-1.5 2.7539-2.25 4.6406-2.25 1.0625 0 2 0.21484 2.8125 0.64062 0.82031 0.42969 1.5664 1.0859 2.2344 1.9688zm-3.2188 9.9219c1.0391 0 1.8359-0.37891 2.3906-1.1406 0.55078-0.76953 0.82812-1.8828 0.82812-3.3438 0-1.457-0.27734-2.5664-0.82812-3.3281-0.55469-0.76953-1.3516-1.1562-2.3906-1.1562-1.043 0-1.8398 0.38672-2.3906 1.1562-0.55469 0.76172-0.82812 1.8711-0.82812 3.3281 0 1.4609 0.27344 2.5742 0.82812 3.3438 0.55078 0.76172 1.3477 1.1406 2.3906 1.1406z"/>
  </symbol>
  <symbol id="k" overflow="visible">
   <path d="m10.5-3.1562c1.0508 0 1.8516-0.37891 2.4062-1.1406 0.55078-0.76953 0.82812-1.8828 0.82812-3.3438 0-1.457-0.27734-2.5664-0.82812-3.3281-0.55469-0.76953-1.3555-1.1562-2.4062-1.1562-1.0547 0-1.8594 0.38672-2.4219 1.1562-0.55469 0.77344-0.82812 1.8828-0.82812 3.3281 0 1.4492 0.27344 2.5586 0.82812 3.3281 0.5625 0.77344 1.3672 1.1562 2.4219 1.1562zm-3.25-9.9219c0.67578-0.88281 1.4219-1.5391 2.2344-1.9688 0.82031-0.42578 1.7656-0.64062 2.8281-0.64062 1.8945 0 3.4453 0.75 4.6562 2.25 1.207 1.5 1.8125 3.4336 1.8125 5.7969 0 2.3555-0.60547 4.2812-1.8125 5.7812-1.2109 1.5-2.7617 2.25-4.6562 2.25-1.0625 0-2.0078-0.21094-2.8281-0.625-0.8125-0.42578-1.5586-1.0859-2.2344-1.9844v2.2188h-4.8906v-21.281h4.8906z"/>
  </symbol>
  <symbol id="j" overflow="visible">
   <path d="m0.34375-15.312h4.8906l4.125 10.391 3.5-10.391h4.8906l-6.4375 16.766c-0.64844 1.6953-1.4023 2.8828-2.2656 3.5625-0.86719 0.6875-2 1.0312-3.4062 1.0312h-2.8438v-3.2188h1.5312c0.83203 0 1.4375-0.13672 1.8125-0.40625 0.38281-0.26172 0.67969-0.73047 0.89062-1.4062l0.14062-0.42188z"/>
  </symbol>
  <symbol id="f" overflow="visible">
   <path d="m17.75-9.3281v9.3281h-4.9219v-7.1094c0-1.3438-0.03125-2.2656-0.09375-2.7656s-0.16797-0.86719-0.3125-1.1094c-0.1875-0.3125-0.44922-0.55469-0.78125-0.73438-0.32422-0.17578-0.69531-0.26562-1.1094-0.26562-1.0234 0-1.8242 0.39844-2.4062 1.1875-0.58594 0.78125-0.875 1.8711-0.875 3.2656v7.5312h-4.8906v-21.281h4.8906v8.2031c0.73828-0.88281 1.5195-1.5391 2.3438-1.9688 0.83203-0.42578 1.75-0.64062 2.75-0.64062 1.7695 0 3.1133 0.54688 4.0312 1.6406 0.91406 1.0859 1.375 2.6562 1.375 4.7188z"/>
  </symbol>
  <symbol id="h" overflow="visible">
   <path d="m2.1875-5.9688v-9.3438h4.9219v1.5312c0 0.83594-0.007813 1.875-0.015625 3.125-0.011719 1.25-0.015625 2.0859-0.015625 2.5 0 1.2422 0.03125 2.1328 0.09375 2.6719 0.070313 0.54297 0.17969 0.93359 0.32812 1.1719 0.20703 0.32422 0.47266 0.57422 0.79688 0.75 0.32031 0.16797 0.69141 0.25 1.1094 0.25 1.0195 0 1.8203-0.39062 2.4062-1.1719 0.58203-0.78125 0.875-1.8672 0.875-3.2656v-7.5625h4.8906v15.312h-4.8906v-2.2188c-0.74219 0.89844-1.5234 1.5586-2.3438 1.9844-0.82422 0.41406-1.7344 0.625-2.7344 0.625-1.7617 0-3.1055-0.53906-4.0312-1.625-0.92969-1.082-1.3906-2.6602-1.3906-4.7344z"/>
  </symbol>
  <symbol id="e" overflow="visible">
   <path d="m17.75-9.3281v9.3281h-4.9219v-7.1406c0-1.3203-0.03125-2.2344-0.09375-2.7344s-0.16797-0.86719-0.3125-1.1094c-0.1875-0.3125-0.44922-0.55469-0.78125-0.73438-0.32422-0.17578-0.69531-0.26562-1.1094-0.26562-1.0234 0-1.8242 0.39844-2.4062 1.1875-0.58594 0.78125-0.875 1.8711-0.875 3.2656v7.5312h-4.8906v-15.312h4.8906v2.2344c0.73828-0.88281 1.5195-1.5391 2.3438-1.9688 0.83203-0.42578 1.75-0.64062 2.75-0.64062 1.7695 0 3.1133 0.54688 4.0312 1.6406 0.91406 1.0859 1.375 2.6562 1.375 4.7188z"/>
  </symbol>
  <symbol id="u" overflow="visible">
   <path d="m2.3594-21.281h4.8906v11.594l5.625-5.625h5.6875l-7.4688 7.0312 8.0625 8.2812h-5.9375l-5.9688-6.3906v6.3906h-4.8906z"/>
  </symbol>
  <symbol id="t" overflow="visible">
   <path d="m2.5781-20.406h5.25v20.406h-5.25z"/>
  </symbol>
  <symbol id="g" overflow="visible">
   <path d="m14.719-14.828v3.9844c-0.65625-0.45703-1.3242-0.79688-2-1.0156-0.66797-0.21875-1.3594-0.32812-2.0781-0.32812-1.3672 0-2.4336 0.40234-3.2031 1.2031-0.76172 0.79297-1.1406 1.9062-1.1406 3.3438 0 1.4297 0.37891 2.543 1.1406 3.3438 0.76953 0.79297 1.8359 1.1875 3.2031 1.1875 0.75781 0 1.4844-0.10938 2.1719-0.32812 0.6875-0.22656 1.3203-0.56641 1.9062-1.0156v4c-0.76172 0.28125-1.5391 0.48828-2.3281 0.625-0.78125 0.14453-1.5742 0.21875-2.375 0.21875-2.7617 0-4.9219-0.70703-6.4844-2.125-1.5547-1.4141-2.3281-3.3828-2.3281-5.9062 0-2.5312 0.77344-4.5039 2.3281-5.9219 1.5625-1.4141 3.7227-2.125 6.4844-2.125 0.80078 0 1.5938 0.074219 2.375 0.21875 0.78125 0.13672 1.5547 0.35156 2.3281 0.64062z"/>
  </symbol>
  <symbol id="b" overflow="visible">
   <path d="m9.6406-12.188c-1.0859 0-1.9141 0.39062-2.4844 1.1719-0.57422 0.78125-0.85938 1.9062-0.85938 3.375s0.28516 2.5938 0.85938 3.375c0.57031 0.77344 1.3984 1.1562 2.4844 1.1562 1.0625 0 1.875-0.38281 2.4375-1.1562 0.57031-0.78125 0.85938-1.9062 0.85938-3.375s-0.28906-2.5938-0.85938-3.375c-0.5625-0.78125-1.375-1.1719-2.4375-1.1719zm0-3.5c2.6328 0 4.6914 0.71484 6.1719 2.1406 1.4766 1.418 2.2188 3.3867 2.2188 5.9062 0 2.5117-0.74219 4.4805-2.2188 5.9062-1.4805 1.418-3.5391 2.125-6.1719 2.125-2.6484 0-4.7148-0.70703-6.2031-2.125-1.4922-1.4258-2.2344-3.3945-2.2344-5.9062 0-2.5195 0.74219-4.4883 2.2344-5.9062 1.4883-1.4258 3.5547-2.1406 6.2031-2.1406z"/>
  </symbol>
  <symbol id="s" overflow="visible">
   <path d="m14.312-14.828v3.7188c-1.043-0.4375-2.0547-0.76562-3.0312-0.98438-0.98047-0.21875-1.9023-0.32812-2.7656-0.32812-0.92969 0-1.6211 0.11719-2.0781 0.34375-0.44922 0.23047-0.67188 0.58984-0.67188 1.0781 0 0.38672 0.17188 0.68359 0.51562 0.89062 0.34375 0.21094 0.95703 0.36719 1.8438 0.46875l0.85938 0.125c2.5078 0.32422 4.1953 0.85156 5.0625 1.5781 0.86328 0.73047 1.2969 1.8711 1.2969 3.4219 0 1.6367-0.60547 2.8672-1.8125 3.6875-1.1992 0.8125-2.9922 1.2188-5.375 1.2188-1.0234 0-2.0742-0.078125-3.1562-0.23438-1.0742-0.15625-2.1797-0.39453-3.3125-0.71875v-3.7188c0.96875 0.48047 1.9609 0.83984 2.9844 1.0781 1.0312 0.23047 2.0781 0.34375 3.1406 0.34375 0.95703 0 1.6758-0.12891 2.1562-0.39062 0.47656-0.26953 0.71875-0.66406 0.71875-1.1875 0-0.4375-0.16797-0.75781-0.5-0.96875-0.33594-0.21875-0.99609-0.38281-1.9844-0.5l-0.85938-0.10938c-2.1797-0.26953-3.7031-0.77344-4.5781-1.5156-0.875-0.73828-1.3125-1.8594-1.3125-3.3594 0-1.625 0.55078-2.8281 1.6562-3.6094 1.1133-0.78906 2.8203-1.1875 5.125-1.1875 0.89453 0 1.8359 0.074219 2.8281 0.21875 1 0.13672 2.082 0.35156 3.25 0.64062z"/>
  </symbol>
  <symbol id="r" overflow="visible">
   <path d="m12.422-21.281v3.2188h-2.7031c-0.6875 0-1.1719 0.125-1.4531 0.375-0.27344 0.25-0.40625 0.6875-0.40625 1.3125v1.0625h4.1875v3.5h-4.1875v11.812h-4.8906v-11.812h-2.4375v-3.5h2.4375v-1.0625c0-1.6641 0.46094-2.8984 1.3906-3.7031 0.92578-0.80078 2.3672-1.2031 4.3281-1.2031z"/>
  </symbol>
  <symbol id="q" overflow="visible">
   <path d="m16.547-12.766c0.61328-0.94531 1.3477-1.6719 2.2031-2.1719 0.85156-0.5 1.7891-0.75 2.8125-0.75 1.7578 0 3.0977 0.54688 4.0156 1.6406 0.92578 1.0859 1.3906 2.6562 1.3906 4.7188v9.3281h-4.9219v-7.9844-0.35938c0.007813-0.13281 0.015625-0.32031 0.015625-0.5625 0-1.082-0.16406-1.8633-0.48438-2.3438-0.3125-0.48828-0.82422-0.73438-1.5312-0.73438-0.92969 0-1.6484 0.38672-2.1562 1.1562-0.51172 0.76172-0.77344 1.8672-0.78125 3.3125v7.5156h-4.9219v-7.9844c0-1.6953-0.14844-2.7852-0.4375-3.2656-0.29297-0.48828-0.8125-0.73438-1.5625-0.73438-0.9375 0-1.6641 0.38672-2.1719 1.1562-0.51172 0.76172-0.76562 1.8594-0.76562 3.2969v7.5312h-4.9219v-15.312h4.9219v2.2344c0.60156-0.86328 1.2891-1.5156 2.0625-1.9531 0.78125-0.4375 1.6406-0.65625 2.5781-0.65625 1.0625 0 2 0.25781 2.8125 0.76562 0.8125 0.51172 1.4258 1.2305 1.8438 2.1562z"/>
  </symbol>
  <symbol id="p" overflow="visible">
   <path d="m2.5781-20.406h5.875l7.4219 14v-14h4.9844v20.406h-5.875l-7.4219-14v14h-4.9844z"/>
  </symbol>
  <symbol id="o" overflow="visible">
   <path d="m2.5781-20.406h8.7344c2.5938 0 4.582 0.57812 5.9688 1.7344 1.3945 1.1484 2.0938 2.7891 2.0938 4.9219 0 2.1367-0.69922 3.7812-2.0938 4.9375-1.3867 1.1562-3.375 1.7344-5.9688 1.7344h-3.4844v7.0781h-5.25zm5.25 3.8125v5.7031h2.9219c1.0195 0 1.8047-0.25 2.3594-0.75 0.5625-0.5 0.84375-1.2031 0.84375-2.1094 0-0.91406-0.28125-1.6172-0.84375-2.1094-0.55469-0.48828-1.3398-0.73438-2.3594-0.73438z"/>
  </symbol>
  <symbol id="n" overflow="visible">
   <path d="m2.3594-15.312h4.8906v15.031c0 2.0508-0.49609 3.6172-1.4844 4.7031-0.98047 1.082-2.4062 1.625-4.2812 1.625h-2.4219v-3.2188h0.85938c0.92578 0 1.5625-0.21094 1.9062-0.625 0.35156-0.41797 0.53125-1.2461 0.53125-2.4844zm0-5.9688h4.8906v4h-4.8906z"/>
  </symbol>
 </defs>
 <g>
  <path d="m363.84 171.61c35.422 0 64.238-28.812 64.238-64.227 0-35.422-28.816-64.23-64.238-64.23-35.414 0-64.227 28.816-64.227 64.23-0.007813 35.414 28.812 64.227 64.227 64.227zm0-111.66c26.156 0 47.438 21.281 47.438 47.434s-21.281 47.426-47.438 47.426c-26.152 0-47.426-21.273-47.426-47.426-0.007813-26.152 21.273-47.434 47.426-47.434zm198.17 188.32c-6.5234 0-12.309 3.2695-15.484 8.7461-2.5352 4.3789-4.8711 8.8711-7.2109 13.367-2.4258 4.6523-4.7109 9.0547-7.2422 13.379-13.586 23.262-27.391 34.586-46.156 37.855-3.0586 0.53906-7.3906 0.63281-11.414 0.4375-4.3867-0.21875-9.5195-1.3945-14.09-3.2266-14.004-5.6055-23.996-17.695-34.578-30.496-1.6406-1.9805-3.293-3.9023-4.9375-5.8516 1.2695 0.066406 2.543 0.12891 3.8125 0.20703 4.1211 0.25391 8.0195 0.47656 11.672 0.34766 0.85156-0.039063 1.707-0.12891 2.5586-0.17188 3.3711 18.781 16.312 31.336 32.801 31.336 18.355 0 33.293-15.395 33.293-34.312 0-4.8789-0.82812-9.4023-2.375-13.461 11.004-10.852 7.5586-30.574 1.4727-41.305-7.1406-12.57-20.363-13.578-30.012-14.32l-1.0039-0.078124c-12.449-0.95313-25.586-2.8008-42.609-5.9883-38.77-7.2461-83.391-18.375-120.46-45.961-28.773-21.402-44.27-52.023-56.734-81.93l-4.0273-9.7617c-6.418-15.637-13.059-31.797-21.594-47.047-5.2734-9.4375-14.359-13.898-25.609-12.617-9.6992 1.125-16.625 7.0547-20.578 17.625-3.1367 8.3555-3.1211 16.84-2.6328 24.746 0.94531 16.027 3.125 31.926 6.4727 47.242 5.7461 26.48 15.121 52.578 27.855 77.566 3.7109 7.293 8.1523 14.168 12.449 20.82 7.0781 10.961 13.758 21.312 17.098 32.945 3.0977 10.781 5.9766 35.297 5.3633 57.746-6.0039-3.0234-12.758-4.7695-19.926-4.7695-24.512 0-44.453 19.938-44.453 44.438 0 24.516 19.941 44.457 44.453 44.457 24.504 0 44.445-19.945 44.445-44.457 0-9.7383-3.1875-18.73-8.5234-26.062 2.6562-28.004-1.2617-62.223-5.207-75.98-4.0273-14.016-11.703-25.918-19.137-37.418-4.25-6.5859-8.2695-12.809-11.594-19.332-12.078-23.699-20.965-48.43-26.41-73.512-3.1602-14.469-5.2188-29.496-6.1133-44.676-0.42969-7.0117-0.32422-12.73 1.5977-17.848 2.1836-5.8359 4.4531-6.5586 6.7812-6.8281 5.5312-0.64844 7.6055 1.6055 9.0156 4.1328 8.0469 14.371 14.48 30.055 20.715 45.227 1.3477 3.2812 2.6953 6.5625 4.0586 9.8398 13.391 32.117 30.191 65.121 62.211 88.945 39.816 29.625 86.742 41.391 127.4 48.988 17.641 3.3047 31.344 5.2266 44.406 6.2227l1.0117 0.085937c9.4922 0.72266 14.234 1.5391 16.688 5.8633 3.1797 5.6172 4.6367 14.262 2.6602 18.988-5.5508-4.1836-12.633-6.6523-20.809-6.8086-9.1953 0-18.973 4.6914-25.523 12.254-2.1797 2.5078-3.8906 5.2266-5.1445 8.0586-1.6797 0.11719-3.3594 0.27344-5.0273 0.34766-2.7773 0.10547-6.2617-0.10156-9.9336-0.32422-6.5742-0.39844-13.867-0.75-20.68 0.41406-5.543-3.3555-11.344-3.8477-17.188-1.5391-7.9648 3.1602-13.031 10.098-13.91 19.039-0.64844 6.793 1.8477 13.113 3.668 17.719 1.7344 4.4062 4.0156 8.9141 6.8594 13.586 1.4219 17.148 11.059 54.074 21.258 93.129 5.168 19.785 10.488 40.176 14.441 57.02-33.258 15.625-105.3 42.727-139.14 27.746 2.2695-2.4258 4.457-4.8594 6.4688-7.3203 1.2617-1.5352 1.9258-3.4727 1.8984-5.4609-0.22266-13.625-0.64453-28.43-1.3203-46.602-0.16406-4.3945 0.64453-6.6523 3.3203-9.2695 20.105-19.691 32.66-38.406 39.508-58.902 3.9766-11.883 6.3828-24.535 7.3594-38.652 0.20312-2.8125-0.12891-5.7305-0.99609-8.7422-1.9805-6.7148-8.9648-12.797-12.203-14.203-2.918-1.2383-5.4102-1.8125-7.8359-1.8125-8.8438 0-13.254 7.6211-15.625 11.715-2.7227 4.7031-5.2344 9.5195-7.7461 14.348-2.5547 4.9062-4.9688 9.543-7.6211 14.094-14.559 24.902-29.344 37.023-49.426 40.516-3.332 0.57812-8.0039 0.6875-12.293 0.46875-4.7227-0.24219-10.254-1.5117-15.164-3.4648-15.031-6.0156-25.699-18.934-37-32.609-2.9414-3.5625-5.8633-7.0938-8.8359-10.465l-1.8867-2.1953c-1.7734-2.0703-3.5547-4.1367-5.4766-6.0352-7.4141-7.3594-15.461-9.375-23.543-6.1719-8.293 3.2773-13.57 10.488-14.48 19.801-0.6875 7.1055 1.9492 13.766 3.8633 18.621 3.6172 9.168 9.4141 18.727 17.711 29.227 2.6719 3.3672 5.4102 6.6484 8.2031 9.8555 4.8438 5.5703 10.031 11.109 15.824 16.93 1.0742 1.082 2.1523 2.2188 3.2422 3.3555 3.9141 4.0898 8.3438 8.7305 13.223 12.051 1.1523 1.082 3.1367 5.1172 3.2695 6.6406 0.37109 7.2734 0.77344 13.402 1.1641 19.375 0.50391 7.668 0.98438 15.082 1.3789 24.414 0.875 21.5 2.1914 42.566 3.9023 62.609 0.23438 2.7734 1.8359 5.2539 4.2656 6.6133 1.2695 0.71875 2.6875 1.0703 4.1055 1.0703 1.2891 0 2.5742-0.29688 3.7578-0.89062 11.016-5.5117 41.66-24.258 66.395-46.594 10.504 6.293 23.676 8.8555 38.051 8.8555 51.379 0 117.51-31.965 127.11-36.754 3.4609-1.7266 5.2969-5.5898 4.4531-9.3633-4.0977-18.211-10.188-41.523-16.078-64.07-5.1172-19.605-10.32-39.535-14.262-56.23 10.293 16.398 22.875 41.699 30.348 75.828 5.2266 23.867 2.3125 46.312 0.11719 57.562-0.21875 1.1016-0.38672 1.9766-0.26953 3.2305 0.26953 2.7539 1.875 5.207 4.3008 6.5469 1.2656 0.69922 2.6641 1.0547 4.0664 1.0547 1.2891 0 2.582-0.29688 3.7617-0.89062 5.3945-2.6992 22.898-9.3516 79.594-23.559 3.793-0.95312 6.4219-4.3867 6.3633-8.2812-0.078125-4.6094-0.17969-13.797-0.29688-24.656-0.25391-23.043-0.59375-54.602-0.96875-64.637-0.14453-4.0312 0.54688-5.9805 2.957-8.3477 18.984-18.582 30.832-36.25 37.301-55.602 4.7539-14.246 6.9609-26.02 6.9609-37.039-0.019531-12.996-10.168-20.746-19.973-20.746zm-333.82 105.15c-15.25 0-27.652-12.41-27.652-27.66 0-15.238 12.402-27.637 27.652-27.637 15.242 0 27.648 12.398 27.648 27.637-0.007812 15.254-12.406 27.66-27.648 27.66zm230.36-84.582c3.3477-3.8516 8.5-6.4453 13.031-6.4453h0.003907c10.422 0.19531 16.656 6.7383 16.656 17.488 0 9.6602-7.3984 17.512-16.492 17.512-10.254 0-15.328-10.074-16.559-18.703-0.61328-4.2383 1.4883-7.6914 3.3594-9.8516zm-185.99 208.55c-18.469 21.453-48.945 42.43-66.938 53.285-1.1914-15.82-2.1328-32.188-2.8125-48.832-0.39062-9.4883-0.88672-17.023-1.3945-24.824-0.38672-5.9023-0.78516-11.957-1.1523-19.117-0.29297-5.9297-4.8438-15.719-10.281-19.453-3.7031-2.5352-7.332-6.332-10.84-10.008-1.1602-1.2148-2.3086-2.4141-3.4648-3.5859-5.5508-5.5625-10.48-10.832-15.07-16.113-2.625-3.0234-5.2031-6.0977-7.6992-9.2578-7.2617-9.1836-12.254-17.348-15.262-24.969-1.3672-3.457-3.0703-7.7578-2.7734-10.824 0.37891-3.8906 2.1992-5.1172 3.9375-5.8008 0.47656-0.18359 0.89062-0.28516 1.2383-0.28516 1.2617 0 3.0312 1.5 4.3125 2.7656 1.6016 1.5781 3.0625 3.3047 4.5312 5.0195l2.043 2.3672c2.8633 3.2461 5.668 6.6523 8.5 10.074 12.141 14.699 24.703 29.898 43.719 37.508 6.6602 2.6562 13.949 4.3047 20.539 4.6406 5.5625 0.28125 11.355 0.11328 16.012-0.69531 32.223-5.6055 49.559-28.914 61.066-48.602 2.8633-4.9062 5.4805-9.9414 8.0117-14.812 2.3984-4.5977 4.7812-9.1992 7.3789-13.676 0.86328-1.4961 1.4844-2.418 1.9023-2.9844 1.1367 0.94531 2.8008 2.8047 3.0898 3.5742 0.30859 1.0625 0.42578 1.9922 0.36328 2.8633-0.875 12.699-3.0117 23.98-6.5312 34.496-5.9766 17.875-17.203 34.473-35.336 52.227-6.1133 5.9883-8.6914 12.738-8.3555 21.902 0.63281 16.668 1.0312 30.473 1.2656 43.117zm286.5-176.69c-5.5898 16.727-16.109 32.273-33.117 48.914-5.8516 5.7305-8.3164 12.203-7.9961 20.973 0.35938 9.8164 0.70703 41.25 0.95703 64.203 0.078125 6.9648 0.14062 13.25 0.20312 18.082-27.844 7.0664-48.688 12.953-62.328 17.594 1.4609-13.395 1.8594-31.473-2.2891-50.449-11.961-54.66-36.523-88.672-46.531-100.75l-0.42578-0.51953c-6.8164-8.6055-11.484-16.238-14.281-23.363-1.2695-3.1992-2.8438-7.1797-2.5742-9.9297 0.33594-3.3867 1.8203-4.4297 3.3828-5.0469 0.38672-0.15234 0.71094-0.23047 0.96875-0.23047 0.37109 0 1.4766 0.24219 3.707 2.4414 1.4375 1.4336 2.7539 2.9844 4.082 4.5352l2.082 2.4062c2.6836 3.0586 5.3242 6.25 7.9844 9.4648 11.457 13.867 23.301 28.203 41.277 35.398 6.3164 2.5312 13.238 4.0938 19.5 4.4062 5.2812 0.26953 10.793 0.10156 15.148-0.66797 30.531-5.3203 46.906-27.34 57.754-45.922 2.7383-4.6758 5.2344-9.4688 7.6445-14.113 2.2227-4.2656 4.4414-8.5352 6.8477-12.695 0.0625-0.10156 0.21094-0.36328 0.94531-0.36328 0.32422 0 3.1523 0.11328 3.1523 3.9102 0.003906 9.168-1.9336 19.254-6.0938 31.727z"/>



 </g>
</svg>
