<?xml version="1.0" encoding="UTF-8"?>
<svg width="700pt" height="700pt" version="1.1" fill="green" viewBox="0 0 700 500" xmlns="http://www.w3.org/2000/svg" xmlns:xlink="http://www.w3.org/1999/xlink">
 <g>
  <path d="m621.25 218.75c0-77.191-62.809-140-140-140-22.078 0-42.902 5.2773-61.496 14.422-2.4922-46.953-41.367-84.422-88.934-84.422-23.828 0-46.219 9.2734-63.062 26.117l-5.2578 5.25c-4.6445 4.6445-12.863 4.6562-17.492 0l-5.2656-5.2578c-16.836-16.836-39.234-26.109-63.062-26.109h-8.75c-49.176 0-89.18 40.004-89.18 89.18 0 52.012 7.7539 103.58 23.047 153.3l41.605 135.22c4.5703 14.832 18.07 24.797 34.328 24.797 16.555 0 30.652-11.277 34.281-27.422l28.938-128.58c1.3477-6.0391 6.6133-10.246 12.801-10.246s11.453 4.207 12.809 10.246l28.938 128.57c3.6328 16.152 17.727 27.43 34.273 27.43 15.855 0 29.801-10.691 33.934-26.004l18.277-67.891c17.457 17.57 39.578 30.398 64.262 36.793v22.102h-26.25c-4.8398 0-8.75 3.9219-8.75 8.75s3.9102 8.75 8.75 8.75h26.25v17.5h-26.25c-4.8398 0-8.75 3.9219-8.75 8.75s3.9102 8.75 8.75 8.75h26.25v87.5c0 19.301 15.699 35 35 35 19.301 0 35-15.699 35-35v-87.5h26.25c4.8398 0 8.75-3.9219 8.75-8.75s-3.9102-8.75-8.75-8.75h-26.25v-17.5h26.25c4.8398 0 8.75-3.9219 8.75-8.75s-3.9102-8.75-8.75-8.75h-26.25v-22.109c60.285-15.602 105.01-70.301 105.01-135.39zm-253.45 83.973-20.992 77.98c-2.0703 7.6836-9.0703 13.047-17.035 13.047-8.3047 0-15.391-5.6602-17.211-13.773l-28.938-128.58c-3.1562-14.066-15.449-23.895-29.871-23.895s-26.715 9.8281-29.883 23.895l-28.938 128.58c-1.8164 8.1133-8.8945 13.773-17.934 13.773-7.7969 0-14.57-5.0039-16.859-12.453l-41.609-135.21c-14.789-48.047-22.277-97.887-22.277-148.16 0-13.352 3.7344-25.828 10.125-36.539 18.652 0.74219 33.625 16.031 33.625 34.859v7.9609c0 18.934 10.027 35.953 26.25 45.324v34.215c0 4.8281 3.9102 8.75 8.75 8.75s8.75-3.9219 8.75-8.75v-25.219l13.59 6.7891c1.25 0.63281 2.5898 0.92969 3.9023 0.92969 3.2109 0 6.3008-1.7656 7.8398-4.8398 2.1602-4.3242 0.41016-9.582-3.9102-11.742l-28.316-14.156c-11.945-5.9609-19.355-17.957-19.355-31.301v-7.9609c0-24.098-16.336-44.406-38.508-50.547 12.828-12.023 30.012-19.453 48.938-19.453h8.75c19.145 0 37.152 7.4531 50.688 20.992l5.2695 5.2578c5.5547 5.5547 13.254 8.75 21.113 8.75 7.9727 0 15.48-3.1055 21.121-8.75l5.2578-5.2578c13.539-13.539 31.539-20.992 50.691-20.992 39.523 0 71.68 32.156 71.68 71.68v5.1523c-36.941 25.234-61.25 67.656-61.25 115.66 0 30.914 10.195 59.422 27.23 82.609-0.21875 0.47656-0.54297 0.85938-0.68359 1.375zm-9.0469-83.973c0-67.551 54.949-122.5 122.5-122.5s122.5 54.949 122.5 122.5-54.949 122.5-122.5 122.5-122.5-54.949-122.5-122.5zm140 297.5c0 9.6523-7.8477 17.5-17.5 17.5s-17.5-7.8477-17.5-17.5v-87.5h35zm0-105h-35v-17.5h35zm0-35h-35v-18.715c5.75 0.72656 11.559 1.2148 17.5 1.2148s11.75-0.48828 17.5-1.2148z"/>
  <path d="m541.64 304.65c3.9453-2.7812 4.8984-8.2422 2.1094-12.188-2.7812-3.9531-8.2148-4.8984-12.199-2.1172-14.758 10.41-32.152 15.906-50.301 15.906-48.246 0-87.5-39.254-87.5-87.5s39.254-87.5 87.5-87.5 87.5 39.254 87.5 87.5c0 17.02-4.8984 33.52-14.148 47.723-2.6406 4.043-1.4961 9.4688 2.5547 12.109 4.0352 2.625 9.457 1.4961 12.109-2.5547 11.105-17.043 16.984-36.855 16.984-57.277 0-57.898-47.102-105-105-105s-105 47.102-105 105 47.102 105 105 105c21.77 0 42.656-6.6055 60.391-19.102z"/>
  <path d="m463.75 280h35c4.8398 0 8.75-3.9219 8.75-8.75v-26.25h26.25c4.8398 0 8.75-3.9219 8.75-8.75v-35c0-4.8281-3.9102-8.75-8.75-8.75h-26.25v-26.25c0-4.8281-3.9102-8.75-8.75-8.75h-35c-4.8398 0-8.75 3.9219-8.75 8.75v26.25h-26.25c-4.8398 0-8.75 3.9219-8.75 8.75v35c0 4.8281 3.9102 8.75 8.75 8.75h26.25v26.25c0 4.8281 3.9102 8.75 8.75 8.75zm-26.25-52.5v-17.5h26.25c4.8398 0 8.75-3.9219 8.75-8.75v-26.25h17.5v26.25c0 4.8281 3.9102 8.75 8.75 8.75h26.25v17.5h-26.25c-4.8398 0-8.75 3.9219-8.75 8.75v26.25h-17.5v-26.25c0-4.8281-3.9102-8.75-8.75-8.75z"/>
  <path d="m297.98 80.219c-10.922-7.2812-25.035-7.2812-35.953 0-5.0234 3.3516-11.516 3.3516-16.547 0-10.922-7.2812-25.035-7.2812-35.953 0l-13.125 8.75c-4.0234 2.6758-5.1094 8.1094-2.4219 12.137 2.6758 4.0078 8.0938 5.1016 12.137 2.4219l13.125-8.75c5.0234-3.3516 11.516-3.3516 16.547 0 10.922 7.2812 25.035 7.2812 35.953 0 5.0234-3.3516 11.516-3.3516 16.547 0l13.125 8.75c1.4766 1 3.1641 1.4727 4.8281 1.4727 2.8281 0 5.6094-1.3633 7.2891-3.8945 2.6875-4.0156 1.6016-9.457-2.4219-12.137z"/>
 </g>
</svg>
